<svg width="24" height="18" viewBox="0 0 24 18" fill="none" xmlns="http://www.w3.org/2000/svg">
<path fill-rule="evenodd" clip-rule="evenodd" d="M12 0.25C12 0.25 12.0001 0.25 12.0001 1L12.0001 1.75L11.9241 1.75011C11.8738 1.75022 11.7997 1.75044 11.7046 1.75089C11.5144 1.75178 11.2405 1.75357 10.9062 1.75714C10.2374 1.7643 9.32869 1.7786 8.36736 1.80717C7.40483 1.83577 6.3956 1.8785 5.52402 1.94208C4.63585 2.00686 3.95286 2.08951 3.59907 2.18315C3.25737 2.2808 2.94726 2.46646 2.69977 2.7216C2.45644 2.97246 2.28209 3.28178 2.19342 3.61956C1.88998 5.31141 1.74158 7.02744 1.75007 8.74629L1.75012 8.75471C1.73927 10.4823 1.88687 12.2071 2.19113 13.9077C2.289 14.2304 2.46582 14.5239 2.7058 14.7614C2.95344 15.0065 3.25999 15.1837 3.59593 15.276C3.9488 15.37 4.63321 15.4529 5.52402 15.5179C6.3956 15.5815 7.40483 15.6242 8.36736 15.6528C9.32869 15.6814 10.2374 15.6957 10.9062 15.7029C11.2405 15.7064 11.5144 15.7082 11.7046 15.7091C11.7997 15.7096 11.8738 15.7098 11.9241 15.7099L12.0001 15.71L12.0001 16.46C12.0001 17.21 12 17.21 12 17.21L11.9207 17.2099C11.8693 17.2098 11.794 17.2095 11.6976 17.2091C11.5048 17.2082 11.2278 17.2064 10.8902 17.2028C10.2152 17.1955 9.29648 17.1811 8.32281 17.1522C7.35034 17.1233 6.31707 17.0798 5.4149 17.014C4.5337 16.9497 3.71405 16.8603 3.20631 16.7245L3.20215 16.7234C2.61655 16.5632 2.08217 16.2546 1.65065 15.8275C1.21913 15.4005 0.905054 14.8693 0.738764 14.2854C0.731985 14.2616 0.726388 14.2375 0.721995 14.2131C0.396807 12.4103 0.238829 10.5814 0.250072 8.7495C0.241345 6.93135 0.399311 5.11622 0.721989 3.3269C0.724955 3.31045 0.72847 3.29411 0.732527 3.27789C0.883363 2.67527 1.19056 2.12312 1.62309 1.67721C2.05561 1.23131 2.59815 0.907442 3.19591 0.738326L3.20629 0.735389C3.71403 0.599599 4.5337 0.510323 5.4149 0.44605C6.31707 0.380247 7.35034 0.336729 8.32281 0.307831C9.29648 0.278898 10.2152 0.264451 10.8902 0.25723C11.2278 0.253619 11.5048 0.251811 11.6976 0.250907C11.794 0.250454 11.8693 0.250228 11.9207 0.250114L12 0.25ZM20.4011 15.2769C20.0473 15.3705 19.3643 15.4531 18.4762 15.5179C17.6046 15.5815 16.5953 15.6242 15.6328 15.6528C14.6715 15.6814 13.7627 15.6957 13.0939 15.7029C12.7597 15.7064 12.4857 15.7082 12.2955 15.7091C12.2005 15.7096 12.1263 15.7098 12.0761 15.7099L12.0001 15.71L12.0001 16.46C12.0001 17.21 12 17.21 12 17.21L12.0794 17.2099C12.1308 17.2098 12.2062 17.2095 12.3026 17.2091C12.4954 17.2082 12.7724 17.2064 13.11 17.2028C13.7849 17.1955 14.7037 17.1811 15.6774 17.1522C16.6498 17.1233 17.6831 17.0798 18.5853 17.014C19.4665 16.9497 20.2861 16.8603 20.7939 16.7245L20.8043 16.7217C21.402 16.5526 21.9446 16.2287 22.3771 15.7828C22.8096 15.3369 23.1168 14.7847 23.2676 14.1821C23.2717 14.1659 23.2752 14.1495 23.2782 14.1331C23.5984 12.3571 23.7564 10.5557 23.7501 8.75105C23.7614 6.91901 23.6034 5.08985 23.2782 3.28686C23.2752 3.27043 23.2717 3.2541 23.2676 3.23789C23.1168 2.63527 22.8096 2.08312 22.3771 1.63721C21.9446 1.19131 21.402 0.867442 20.8043 0.698327C20.7955 0.695862 20.7868 0.693555 20.778 0.691407C20.2762 0.568876 19.462 0.487546 18.5805 0.428845C17.6797 0.368852 16.6475 0.329149 15.6754 0.302776C14.7023 0.276373 13.784 0.263188 13.1093 0.256598C12.7718 0.253302 12.495 0.251653 12.3023 0.250827C12.2059 0.250414 12.1306 0.250208 12.0793 0.250104L12 0.25C12 0.25 12.0001 0.25 12.0001 1L12.0001 1.75L12.0763 1.7501L12.2959 1.75081C12.4862 1.75163 12.7602 1.75326 13.0946 1.75653C13.7637 1.76306 14.6729 1.77613 15.6347 1.80222C16.5977 1.82835 17.608 1.8674 18.4809 1.92553C19.3622 1.98423 20.047 2.05926 20.4089 2.14538C20.7475 2.24362 21.0548 2.4284 21.3004 2.6816C21.5437 2.93246 21.7181 3.2418 21.8068 3.57958C22.1126 5.28423 22.261 7.01342 22.2501 8.74529L22.2501 8.7527C22.2562 10.4585 22.1078 12.1614 21.8067 13.8404C21.7181 14.1782 21.5437 14.4875 21.3004 14.7384C21.0529 14.9935 20.7428 15.1792 20.4011 15.2769Z" fill="#DDDDDD"/>
<path fill-rule="evenodd" clip-rule="evenodd" d="M9.37289 4.83217C9.60374 4.69788 9.8886 4.69649 10.1208 4.82852L15.8708 8.09852C16.1052 8.23184 16.25 8.48077 16.25 8.75047C16.25 9.02016 16.1052 9.26909 15.8708 9.40242L10.1208 12.6724C9.8886 12.8044 9.60374 12.8031 9.37289 12.6688C9.14203 12.5345 9 12.2875 9 12.0205V5.48047C9 5.21339 9.14203 4.96647 9.37289 4.83217ZM10.5 6.76979V10.7311L13.9828 8.75047L10.5 6.76979Z" fill="#DDDDDD"/>
</svg>
